# AST/ASF file generated using VICON BodyLanguage
# -----------------------------------------------
:version 1.10
:name VICON
:units
  mass 1.0
  length 0.45
  angle deg
:documentation
   .ast/.asf automatically generated from VICON data using
   VICON BodyBuilder and BodyLanguage model FoxedUp or BRILLIANT.MOD
:root
   order TX TY TZ RX RY RZ
   axis XYZ
   position 0 0 0  
   orientation 0 0 0 
:bonedata
  begin
     id 1 
     name lhipjoint
     direction 0.661853 -0.702389 0.261917 
     length 2.64193 
     axis 0 0 0  XYZ
  end
  begin
     id 2 
     name lfemur
     direction 0.34202 -0.939693 0  
     length 7.01722  
     axis 0 0 20  XYZ
    dof rx ry rz
    limits (-160.0 20.0)
           (-70.0 70.0)
           (-60.0 70.0)
  end
  begin
     id 3 
     name ltibia
     direction 0.34202 -0.939693 0   
     length 8.25008   
     axis 0 0 20   XYZ
    dof rx
    limits (-10.0 170.0)
  end
  begin
     id 4 
     name lfoot
     direction 0.0709916 -0.195048 0.978221   
     length 2.31941   
     axis -90 7.62852e-016 20   XYZ
    dof rx rz
    limits (-45.0 90.0)
           (-70.0 20.0)
  end
  begin
     id 5 
     name ltoes
     direction 1.53586e-011 -4.22017e-011 1   
     length 1.16486   
     axis -90 7.62852e-016 20   XYZ
    dof rx
    limits (-90.0 20.0)
  end
  begin
     id 6 
     name rhipjoint
     direction -0.638185 -0.721362 0.268992   
     length 2.57244  
     axis 0 0 0  XYZ 
  end
  begin
     id 7 
     name rfemur
     direction -0.34202 -0.939693 0   
     length 7.07017   
     axis 0 0 -20   XYZ
    dof rx ry rz
    limits (-160.0 20.0)
           (-70.0 70.0)
           (-70.0 60.0)
  end
  begin
     id 8 
     name rtibia
     direction -0.34202 -0.939693 0   
     length 8.20386   
     axis 0 0 -20   XYZ
    dof rx
    limits (-10.0 170.0)
 end
 begin
     id 9 
     name rfoot
     direction -0.0822429 -0.225961 0.970658   
     length 2.32215  
     axis -90 -7.62852e-016 -20   XYZ
    dof rx rz
    limits (-45.0 90.0)
           (-20.0 70.0)
  end
  begin
     id 10 
     name rtoes
     direction -1.53597e-011 -4.21689e-011 1   
     length 1.16333   
     axis -90 -7.62852e-016 -20   XYZ
    dof rx
    limits (-90.0 20.0)
  end
  begin
     id 11 
     name lowerback
     direction -0.0131557 0.998589 -0.0514484   
     length 2.14993   
     axis 0 0 0   XYZ
    dof rx ry rz
    limits (-20.0 45.0)
           (-30.0 30.0)
           (-30.0 30.0)
  end
  begin
     id 12 
     name upperback
     direction -0.000776481 0.999993 0.00352685   
     length 2.15301   
     axis 0 0 0   XYZ
    dof rx ry rz
    limits (-20.0 45.0)
           (-30.0 30.0)
           (-30.0 30.0)
  end
  begin
     id 13 
     name thorax
     direction 0.00438186 0.999609 0.0276143   
     length 2.15424   
     axis 0 0 0   XYZ
    dof rx ry rz
    limits (-20.0 45.0)
           (-30.0 30.0)
           (-30.0 30.0)
  end
  begin
     id 14 
     name lowerneck
     direction -0.0488006 0.998094 0.0377807   
     length 1.90481   
     axis 0 0 0   XYZ
    dof rx ry rz
    limits (-20.0 45.0)
           (-30.0 30.0)
           (-30.0 30.0)
  end
  begin
     id 15 
     name upperneck
     direction 0.0443769 0.990702 -0.12861   
     length 1.91305   
     axis 0 0 0   XYZ
    dof rx ry rz
    limits (-20.0 45.0)
           (-30.0 30.0)
           (-30.0 30.0)
  end
  begin
     id 16
     name head
     direction 0.0165599 0.998647 -0.0492982  
     length 1.92369  
     axis 0 0 0   XYZ
    dof rx ry rz
    limits (-20.0 45.0)
           (-30.0 30.0)
           (-30.0 30.0)
  end
  begin
     id 17 
     name lclavicle
     direction 0.911936 0.410197 -0.0105506  
     length 3.52622  
     axis 0 0 0   XYZ
    dof ry rz
    limits (-20.0 10.0)
           (0.0 20.0)
  end
  begin
     id 18 
     name lhumerus
     direction 1 -4.48974e-011 -2.48591e-028   
     length 5.47651   
     axis 180 -30 -90   XYZ
    dof rx ry rz
    limits (-60.0 90.0)
           (-90.0 90.0)
           (-90.0 90.0)
  end
  begin
     id 19
     name lradius
     direction 1 -4.48938e-011 -4.40099e-027   
     length 3.09058   
     axis 180 -30 -90   XYZ
    dof rx
    limits (-10.0 170.0)
  end
  begin
     id 20
     name lwrist
     direction 1 -4.49042e-011 -2.99852e-027   
     length 1.54529   
     axis 1.95339e-015 90 90   XYZ
    dof ry
    limits (-180.0 0.0)
 end
  begin
     id 21 
     name lhand
     direction 1 -4.48815e-011 -5.98193e-027   
     length 0.771611   
     axis 3.82337e-015 90 90   XYZ
    dof rx rz
    limits (-90.0 90.0)
           (-45.0 45.0)
  end
  begin
     id 22 
     name lfingers
     direction 1 -4.49034e-011 -1.1993e-026   
     length 0.622093   
     axis 7.64668e-015 90 90   XYZ
    dof rx
    limits (0.0 90.0)
  end
  begin
     id 23
     name lthumb
     direction 0.707107 -6.34867e-011 0.707107   
     length 0.893204   
     axis -90 45 -1.62303e-014   XYZ
    dof rx rz
    limits (-45.0 45.0)
           (-45.0 45.0)
  end
  begin
     id 24 
     name rclavicle
     direction -0.93442 0.355634 -0.0195692   
     length 3.62463  
     axis 0 0 0   XYZ 
    dof ry rz
    limits (-10.0 20.0)
           (-20.0 0.0)
  end
  begin
     id 25 
     name rhumerus
     direction -1 -4.48957e-011 -1.19147e-027  
     length 5.14182   
     axis 180 30 90   XYZ
    dof rx ry rz
    limits (-90.0 60.0)
           (-90.0 90.0)
           (-90.0 90.0)
  end
  begin
     id 26 
     name rradius
     direction -1 -4.48952e-011 -3.81062e-027   
     length 3.35565   
     axis 180 30 90   XYZ
    dof rx
    limits (-10.0 170.0)
  end
  begin
     id 27 
     name rwrist
     direction -1 -4.48973e-011 -2.99621e-027   
     length 1.67782   
     axis 1.95339e-015 -90 -90   XYZ
    dof ry
    limits (-180.0 0.0)
  end
  begin
     id 28
     name rhand
     direction -1 -4.48895e-011 -5.98727e-027   
     length 0.801042   
     axis 3.82337e-015 -90 -90   XYZ
    dof rx rz
    limits (-90.0 90.0)
           (-45.0 45.0)
  end
  begin
     id 29
     name rfingers
     direction -1 -4.49065e-011 -1.19972e-026   
     length 0.645821   
     axis 7.64668e-015 -90 -90   XYZ
    dof rx
    limits (0.0 90.0)
  end
  begin
     id 30
     name rthumb
     direction -0.707107 -6.34957e-011 0.707107   
     length 0.927273   
     axis -90 -45 1.62303e-014   XYZ
    dof rx rz
    limits (-45.0 45.0)
           (-45.0 45.0)
  end
:hierarchy
  begin
    root lhipjoint rhipjoint lowerback
    lhipjoint lfemur
    lfemur ltibia
    ltibia lfoot
    lfoot ltoes
    rhipjoint rfemur
    rfemur rtibia
    rtibia rfoot
    rfoot rtoes
    lowerback upperback
    upperback thorax
    thorax lowerneck lclavicle rclavicle
    lowerneck upperneck
    upperneck head
    lclavicle lhumerus
    lhumerus lradius
    lradius lwrist
    lwrist lhand lthumb
    lhand lfingers
    rclavicle rhumerus
    rhumerus rradius
    rradius rwrist
    rwrist rhand rthumb
    rhand rfingers
  end

#!OML:ASF E:\Style4\Style4.ASF
:FULLY-SPECIFIED
:DEGREES
408
root 1.53302 16.652 0.190274 -2.47798 -30.9723 3.63255
lowerback 10.9909 0.350254 -4.64953
upperback 7.1083 -0.0426006 -0.117826
thorax 1.27162 -0.214813 2.49283
lowerneck 7.16453 -2.18882 -5.91214
upperneck 2.50734 -3.37011 2.93006
head -0.275973 -1.76291 2.00762
rclavicle -5.51627e-015 5.76476e-015
rhumerus -26.6601 25.6235 -59.3366
rradius 135.088
rwrist -74.801
rhand 58.1254 -8.27306
rfingers 7.12502
rthumb 74.0893 17.6994
lclavicle -5.51627e-015 5.76476e-015
lhumerus 11.018 -36.7823 32.2126
lradius 138.896
lwrist 78.9178
lhand 34.5524 49.6345
lfingers 7.12502
lthumb 57.7466 65.5812
rfemur -29.1055 12.651 9.5758
rtibia 54.1782
rfoot -23.5598 -7.98848
rtoes -23.1977
lfemur -18.3723 21.6403 -27.6649
ltibia 52.7551
lfoot -36.4039 18.4276
ltoes -12.1355
409
root 1.53833 16.658 0.192392 -2.47116 -31.1962 3.66949
lowerback 10.9413 0.218451 -4.94422
upperback 7.10872 -0.240211 -0.0830299
thorax 1.31917 -0.325706 2.71327
lowerneck 6.73242 -2.04864 -5.79416
upperneck 2.82229 -3.15407 2.86088
head -0.116227 -1.65493 1.94796
rclavicle -2.90723e-015 2.18663e-015
rhumerus -25.0502 27.2456 -56.8849
rradius 135.038
rwrist -74.9512
rhand 57.6449 -7.85164
rfingers 7.12502
rthumb 73.9264 16.5437
lclavicle -2.90723e-015 2.18663e-015
lhumerus 11.9402 -36.6181 29.5299
lradius 139.019
lwrist 79.2243
lhand 34.8076 49.997
lfingers 7.12502
lthumb 57.9695 65.7458
rfemur -29.1578 12.7455 9.5202
rtibia 54.0648
rfoot -23.4851 -7.88566
rtoes -23.3518
lfemur -18.4047 21.6618 -27.7347
ltibia 52.7259
lfoot -36.3264 18.5539
ltoes -12.0656
410
root 1.54333 16.6641 0.196063 -2.48845 -31.4344 3.70949
lowerback 10.8782 0.212086 -5.06615
upperback 7.07899 -0.256169 -0.0635032
thorax 1.32554 -0.337713 2.8034
lowerneck 6.48181 -2.01333 -5.74848
upperneck 3.13819 -3.09335 2.8303
head 0.0215994 -1.62646 1.921
rclavicle 3.39673e-014 2.38542e-015
rhumerus -23.7915 28.5306 -54.3453
rradius 135.106
rwrist -75.1334
rhand 57.2557 -7.75508
rfingers 7.12502
rthumb 73.7855 15.387
lclavicle 3.39673e-014 2.38542e-015
lhumerus 13.4831 -36.8122 26.6306
lradius 139.207
lwrist 79.3122
lhand 34.4959 49.773
lfingers 7.12502
lthumb 57.6971 65.763
rfemur -29.1823 12.8312 9.46483
rtibia 53.9635
rfoot -23.4251 -7.79314
rtoes -23.3952
lfemur -18.3787 21.7149 -27.7895
ltibia 52.6821
lfoot -36.3356 18.6132
ltoes -11.9424
411
root 1.54824 16.6701 0.199977 -2.44994 -31.631 3.74921
lowerback 10.7969 0.226663 -5.10964
upperback 7.00314 -0.236724 -0.0848241
thorax 1.28856 -0.326025 2.80372
lowerneck 6.24753 -2.00603 -5.69891
upperneck 3.50271 -3.07227 2.88034
head 0.174618 -1.61873 1.92077
rclavicle 2.28105e-014 -1.75924e-014
rhumerus -22.7333 29.7869 -51.9293
rradius 135.208
rwrist -75.2636
rhand 56.7846 -7.53646
rfingers 7.12502
rthumb 73.6044 14.1185
lclavicle 2.28105e-014 -1.75924e-014
lhumerus 15.1762 -37.0385 23.6704
lradius 139.386
lwrist 79.4551
lhand 34.0469 49.4896
lfingers 7.12502
lthumb 57.3038 65.8196
rfemur -29.268 12.8826 9.39118
rtibia 53.8718
rfoot -23.3758 -7.66971
rtoes -23.4907
lfemur -18.4095 21.758 -27.8729
ltibia 52.6413
lfoot -36.348 18.663
ltoes -12.0856
412
root 1.55318 16.6752 0.201898 -2.44888 -31.8212 3.84724
lowerback 10.768 0.247078 -5.23916
upperback 6.88928 -0.220601 -0.10115
thorax 1.18482 -0.316169 2.85846
lowerneck 6.10774 -1.98499 -5.70381
upperneck 3.80385 -3.04193 2.94704
head 0.292429 -1.60676 1.93828
rclavicle -2.28354e-014 8.74653e-015
rhumerus -21.6614 31.1264 -49.5343
rradius 135.328
rwrist -75.5161
rhand 56.8072 -7.42344
rfingers 7.12502
rthumb 73.6133 14.302
lclavicle -2.28354e-014 8.74653e-015
lhumerus 16.6511 -37.1582 20.9745
lradius 139.461
lwrist 79.716
lhand 33.8669 49.5668
lfingers 7.12502
lthumb 57.1458 66.0307
rfemur -29.3577 12.9459 9.25557
rtibia 53.7764
rfoot -23.3182 -7.49069
rtoes -23.5705
lfemur -18.459 21.7845 -28.0066
ltibia 52.6098
lfoot -36.3942 18.6993
ltoes -12.0801
413
root 1.55851 16.6816 0.20413 -2.37859 -32.0518 3.78976
lowerback 10.7754 0.27436 -5.22315
upperback 6.76115 -0.185401 -0.080505
thorax 1.04269 -0.29151 2.86836
lowerneck 5.86587 -1.96229 -5.68513
upperneck 4.21543 -3.00287 2.93797
head 0.460253 -1.59039 1.92484
rclavicle -4.82053e-014 4.67144e-015
rhumerus -20.486 32.4883 -47.138
rradius 135.443
rwrist -75.8864
rhand 57.745 -7.43069
rfingers 7.12502
rthumb 73.9614 17.2904
lclavicle -4.82053e-014 4.67144e-015
lhumerus 17.9751 -37.2924 18.4789
lradius 139.511
lwrist 80.0013
lhand 33.6479 49.8204
lfingers 7.12502
lthumb 56.9533 66.4453
rfemur -29.4304 13.0424 9.27941
rtibia 53.6563
rfoot -23.2329 -7.3414
rtoes -23.5725
lfemur -18.5268 21.8383 -27.989
ltibia 52.6017
lfoot -36.4223 18.778
ltoes -12.0169
414
root 1.56408 16.6892 0.207715 -2.23811 -32.2504 3.64427
lowerback 10.7399 0.290399 -5.07573
upperback 6.64469 -0.150526 -0.0550966
thorax 0.934508 -0.264282 2.80897
lowerneck 5.56403 -1.94851 -5.69867
upperneck 4.67417 -2.97469 2.93171
head 0.654288 -1.58 1.918
rclavicle 5.90639e-014 -3.69739e-014
rhumerus -19.3195 33.7759 -44.8021
rradius 135.514
rwrist -76.1585
rhand 58.1232 -7.21372
rfingers 7.12502
rthumb 74.0886 18.7516
lclavicle 5.90639e-014 -3.69739e-014
lhumerus 19.2679 -37.3774 16.1241
lradius 139.441
lwrist 80.1064
lhand 33.8119 49.9319
lfingers 7.12502
lthumb 57.0975 66.4364
rfemur -29.4863 13.0945 9.37747
rtibia 53.5161
rfoot -23.1728 -7.10824
rtoes -23.2062
lfemur -18.5979 21.8424 -27.896
ltibia 52.5948
lfoot -36.3909 18.8097
ltoes -11.7762
415
root 1.56988 16.699 0.213287 -2.10538 -32.4286 3.5634
lowerback 10.6524 0.299281 -4.96577
upperback 6.53006 -0.125079 -0.0471346
thorax 0.858023 -0.243481 2.75306
lowerneck 5.2662 -1.93124 -5.79463
upperneck 5.14554 -2.94861 3.01419
head 0.855319 -1.57202 1.95616
rclavicle -7.90169e-015 1.50082e-014
rhumerus -18.0945 35.0134 -42.5198
rradius 135.546
rwrist -76.4252
rhand 57.5233 -6.98303
rfingers 7.12502
rthumb 73.8832 17.0184
lclavicle -7.90169e-015 1.50082e-014
lhumerus 20.4569 -37.367 13.9545
lradius 139.281
lwrist 80.0477
lhand 34.4344 49.9871
lfingers 7.12502
lthumb 57.6434 66.0243
rfemur -29.559 13.0962 9.40524
rtibia 53.3643
rfoot -23.0604 -6.93682
rtoes -23.1204
lfemur -18.6787 21.8074 -27.8721
ltibia 52.5871
lfoot -36.3359 18.8229
ltoes -11.6348
